<svg clip-rule="evenodd" fill-rule="evenodd" stroke-linejoin="round" stroke-miterlimit="2" viewBox="0 0 16 16" xmlns="http://www.w3.org/2000/svg"><g fill="#e0e0e0"><g fill-opacity=".2"><path d="m10.061 11.466 2.152 2.152c-.924.694-2.023 1.166-3.22 1.336v-3.045c.381-.096.74-.247 1.068-.443z"/><path d="m5.939 11.466c.328.196.687.347 1.068.443v3.045c-1.197-.17-2.297-.642-3.22-1.336z"/><path d="m14.954 8.993c-.17 1.197-.642 2.297-1.336 3.22l-2.152-2.152c.196-.328.347-.687.443-1.068z"/><path d="m1.046 8.993h3.045c.096.381.247.74.443 1.068l-2.152 2.152c-.694-.923-1.166-2.023-1.336-3.22z"/><path d="m2.382 3.787 2.152 2.152c-.196.329-.347.687-.443 1.068h-3.045c.17-1.197.642-2.297 1.336-3.22z"/><path d="m13.618 3.787c.694.923 1.166 2.023 1.336 3.22h-3.045c-.096-.381-.247-.74-.443-1.068z"/><path d="m7.007 1.046v3.045c-.381.096-.74.247-1.068.443l-2.152-2.152c.923-.694 2.023-1.166 3.22-1.336z"/></g><path d="m8.993 1.046c1.197.17 2.297.642 3.22 1.336l-2.152 2.152c-.328-.196-.687-.347-1.068-.443z"/></g></svg>
